# xmcd
#
# Track frame offsets:
#	150
#	20647
#	42972
#	58087
#	77452
#	95295
#	117795
#	137547
#	159727
#	180447
#	201040
#
# Disc length: 2951 seconds
#
# Revision: 0
# Processed by: cddbd v1.4PL0 Copyright (c) Steve Scherf et al.
# Submitted via: EasyCDDAExtractor 4.6.9.1
#
DISCID=850b850b
DTITLE=Marie Carmen - Les grands succès
DYEAR=1998
DGENRE=Rock
TTITLE0=L'aigle noire
TTITLE1=Faut pas que j'panique
TTITLE2=Dans la peau
TTITLE3=C'est pas perdu
TTITLE4=J'ai l'blues de vous
TTITLE5=Tu t'en vas
TTITLE6=Donne-toi
TTITLE7=T'oublier
TTITLE8=Ma façon
TTITLE9=Entre l'ombre et la lumiere
TTITLE10=Piaf chanterait du rock
EXTD=
EXTT0=
EXTT1=
EXTT2=
EXTT3=
EXTT4=
EXTT5=
EXTT6=
EXTT7=
EXTT8=
EXTT9=
EXTT10=
PLAYORDER=
